<svg width="29" height="25"  stroke="#145A88" viewBox="0 0 29 25" fill="#145A88" xmlns="http://www.w3.org/2000/svg">
    <path d="M24.773 2.52965C21.725 0.00405335 17.0158 0.383412 14.0996 3.30914C11.1834 0.383412 6.47423 -0.00114352 3.42618 2.52965C-0.539447 5.81915 0.0406308 11.1822 2.8672 14.0247L12.1167 23.3112C12.6441 23.8413 13.3507 24.1375 14.0996 24.1375C14.8537 24.1375 15.5551 23.8465 16.0824 23.3164L25.332 14.0299C28.1533 11.1873 28.744 5.82434 24.773 2.52965ZM23.5285 12.2734L14.2789 21.5599C14.1524 21.6846 14.0469 21.6846 13.9203 21.5599L4.67071 12.2734C2.74591 10.3403 2.35567 6.68179 5.05567 4.44203C7.10703 2.74271 10.2711 2.99734 12.2539 4.98768L14.0996 6.84289L15.9453 4.98768C17.9387 2.98696 21.1028 2.74271 23.1435 4.43683C25.8382 6.6766 25.4375 10.3558 23.5285 12.2734Z"
    />
</svg>
